<?xml version="1.0" encoding="UTF-8"?>
<svg xmlns="http://www.w3.org/2000/svg" xmlns:xlink="http://www.w3.org/1999/xlink" viewBox="0 0 35 35" width="35px" height="35px">
<g id="surface37802112">
<path style=" stroke:none;fill-rule:nonzero;fill:rgb(13.725491%,21.176471%,12.54902%);fill-opacity:1;" d="M 17.5 3.5 C 9.769531 3.5 3.5 9.769531 3.5 17.5 C 3.5 25.230469 9.769531 31.5 17.5 31.5 C 25.230469 31.5 31.5 25.230469 31.5 17.5 C 31.5 9.769531 25.230469 3.5 17.5 3.5 Z M 22.378906 12.832031 L 20.359375 12.832031 C 19.105469 12.832031 18.667969 13.496094 18.667969 14.835938 L 18.667969 16.332031 L 22.347656 16.332031 L 21.847656 19.832031 L 18.667969 19.832031 L 18.667969 29.109375 C 18.28125 29.144531 17.894531 29.167969 17.5 29.167969 C 16.699219 29.167969 15.921875 29.085938 15.167969 28.933594 L 15.167969 19.832031 L 11.667969 19.832031 L 11.667969 16.332031 L 15.167969 16.332031 L 15.167969 14.453125 C 15.167969 10.894531 16.898438 9.332031 19.859375 9.332031 C 21.273438 9.332031 22.023438 9.4375 22.378906 9.484375 Z M 22.378906 12.832031 "/>
</g>
</svg>
