<?xml version="1.0" encoding="UTF-8"?>
<svg xmlns="http://www.w3.org/2000/svg" xmlns:xlink="http://www.w3.org/1999/xlink" viewBox="0 0 35 35" width="35px" height="35px">
<g id="surface37784005">
<path style=" stroke:none;fill-rule:nonzero;fill:rgb(13.725491%,21.176471%,12.54902%);fill-opacity:1;" d="M 17.5 2.332031 C 9.136719 2.332031 2.332031 9.136719 2.332031 17.5 C 2.332031 25.863281 9.136719 32.667969 17.5 32.667969 C 25.863281 32.667969 32.667969 25.863281 32.667969 17.5 C 32.667969 9.136719 25.863281 2.332031 17.5 2.332031 Z M 13.609375 7 L 21.386719 7 C 25.035156 7 28 9.964844 28 13.609375 L 28 21.386719 C 28 25.035156 25.035156 28 21.390625 28 L 13.613281 28 C 9.96875 28 7 25.035156 7 21.390625 L 7 13.613281 C 7 9.96875 9.964844 7 13.609375 7 Z M 13.609375 9.332031 C 11.253906 9.332031 9.332031 11.253906 9.332031 13.613281 L 9.332031 21.390625 C 9.332031 23.746094 11.253906 25.667969 13.613281 25.667969 L 21.390625 25.667969 C 23.746094 25.667969 25.667969 23.746094 25.667969 21.386719 L 25.667969 13.609375 C 25.667969 11.253906 23.746094 9.332031 21.386719 9.332031 Z M 22.945312 11.277344 C 23.375 11.277344 23.722656 11.625 23.722656 12.054688 C 23.722656 12.484375 23.375 12.832031 22.945312 12.832031 C 22.515625 12.832031 22.167969 12.484375 22.167969 12.054688 C 22.167969 11.625 22.515625 11.277344 22.945312 11.277344 Z M 17.5 11.667969 C 20.714844 11.667969 23.332031 14.285156 23.332031 17.5 C 23.332031 20.714844 20.714844 23.332031 17.5 23.332031 C 14.285156 23.332031 11.667969 20.714844 11.667969 17.5 C 11.667969 14.285156 14.285156 11.667969 17.5 11.667969 Z M 17.5 14 C 15.566406 14 14 15.566406 14 17.5 C 14 19.433594 15.566406 21 17.5 21 C 19.433594 21 21 19.433594 21 17.5 C 21 15.566406 19.433594 14 17.5 14 Z M 17.5 14 "/>
</g>
</svg>
