<svg xmlns="http://www.w3.org/2000/svg" viewBox="0 0 1080 1080"><defs><style>.cls-1{fill:#233620;}</style></defs><title>favicon trnsp</title><g id="Layer_6" data-name="Layer 6"><path class="cls-1" d="M540,59A481.14,481.14,0,0,1,727.21,983.22,481.14,481.14,0,0,1,352.79,96.78,477.93,477.93,0,0,1,540,59m0-40C252.26,19,19,252.26,19,540s233.26,521,521,521,521-233.26,521-521S827.74,19,540,19Z"/><path class="cls-1" d="M245.71,318.6a4.24,4.24,0,0,0,1.94-.48,4.43,4.43,0,0,1,1.94-.47,51.43,51.43,0,0,1,23.74,5.7,68.13,68.13,0,0,1,19.38,14.72A70.5,70.5,0,0,1,305.79,359a50.13,50.13,0,0,1,3.88,23.28q-1.95,33.27-13.57,58.9T270.91,497.2l7.75,1.9q4.83,1.92,9.69,3.8c3.23,1.28,6.45,2.54,9.69,3.8q14.54-18,37.31-49.4t49.42-62.23A393.21,393.21,0,0,1,440,341.87q28.58-22.31,54.75-22.32a56,56,0,0,1,28.58,7.6,68.8,68.8,0,0,1,21.8,20,91.85,91.85,0,0,1,13.09,27.07,82.45,82.45,0,0,1,3.39,29q-1,12.36-10.66,36.57a361.94,361.94,0,0,1-24.23,48.93,273.83,273.83,0,0,1-31,43.22q-16.5,18.52-31,18.53A36,36,0,0,1,453.08,548a83.63,83.63,0,0,1-13.57-6.17,53.46,53.46,0,0,1-11.62-8.55q-4.86-4.74-4.85-9.5t14-19.95q14-15.18,30.53-35.15A382.64,382.64,0,0,0,498.14,426q14-22.8,15-43.7.95-7.59-2.91-20.43T495.72,349q-14.54,0-31,10.45A210.16,210.16,0,0,0,430.79,387a454.24,454.24,0,0,0-34.4,38q-17,20.91-31.49,41.32t-26.16,38q-11.62,17.59-18.41,28Q331,552.3,340.68,574.62A331.26,331.26,0,0,0,362,616q9.67,16.17,24.23,43.7A234.18,234.18,0,0,0,423,711a105.31,105.31,0,0,0,17.44,13.77,45.73,45.73,0,0,0,21.32,7.13c1.29,0,3.54.16,6.78.47s4.85,1.43,4.85,3.33c0,3.8-1.94,7-5.81,9.5a52.62,52.62,0,0,1-13.57,6.17,90.43,90.43,0,0,1-15,3.33,91.66,91.66,0,0,1-11.14,1q-26.17,0-47.49-19A240.73,240.73,0,0,1,341.16,691a468.48,468.48,0,0,1-32-55.1q-14.06-28.5-24.71-46.55a707.54,707.54,0,0,0-45.54,73.15q-3.88,7.62-9.69,20.42t-11.63,26.6q-5.81,13.79-10.17,24.7T201.14,748q-4.86,9.51-16.47,9.5-12.61,0-18.9-10a59.07,59.07,0,0,1-8.23-23.75,158.87,158.87,0,0,1-1.46-28c.32-9.5.49-16.77.49-21.85a282.63,282.63,0,0,1,17.44-85q15.48-42.25,33.43-82.17t33.43-77.43q15.48-37.51,17.44-72.67a27.43,27.43,0,0,0-6.3-18.05,38.17,38.17,0,0,1-8.23-17.1ZM267,556.1a21.66,21.66,0,0,0-3.87-12.35c-2.59-3.8-4.85-7.27-6.79-10.45q-5.81,12.36-14.05,29.45t-16,35.62Q218.58,616.9,212.77,635T206,666.3q2.91-4.74,12.6-21.85t20.35-36.1q10.65-19,19.38-34.68C264.13,563.22,267,557.38,267,556.1Zm-35.85-42.75,8.72-17.1,12.6-24.7A153.24,153.24,0,0,0,263.16,445c.63-3.16,1.12-6.18,1.45-9a33.86,33.86,0,0,1,2.42-9q-11.62,27.57-18.41,43.7T236,500.05q-5.81,13.32-5.81,14.25Zm30-110.2a174.67,174.67,0,0,0-16,35.15q-6.31,19-11.14,36.1c1.28-2.52,3.39-7.13,6.29-13.78s5.82-13.44,8.73-20.42,5.64-13.61,8.23-19.95,3.88-10.45,3.88-12.35Zm12.59,67.45a30,30,0,0,1,1.94-3.33,5.77,5.77,0,0,0,1-3.32l-1.94,1.9ZM380.4,722.35q-15.51-20.88-26.64-38t-20.35-33.73Q324.18,634,315,616.42T293.19,578q1,10.47,12.12,30.87t25.19,42.75q14,22.33,28.1,42.28T380.4,722.35ZM463.74,510.5c.64,0,2.42-1.26,5.33-3.8s6-5.37,9.2-8.55a114.48,114.48,0,0,0,8.73-9.5c2.57-3.16,3.87-5.37,3.87-6.65q-7.77,6.66-14.53,13.3A99.8,99.8,0,0,0,463.74,510.5Zm17.44-38.95q3.85-3.78,7.27-7.6a29.5,29.5,0,0,0,5.33-8.55A72.16,72.16,0,0,0,487,463,102.13,102.13,0,0,0,481.18,471.55Z"/><path class="cls-1" d="M580.58,640.65q15.49,0,30-23.68t30.53-59.67q16-36,34.88-77.2a517,517,0,0,1,43.6-77.19q24.72-36,56.69-59.67t74.61-23.69q31,0,49.42,19T916.83,388a124,124,0,0,1-8.24,38,128.12,128.12,0,0,1-19.87,34.67,98.8,98.8,0,0,1-30,25.18,79.66,79.66,0,0,1-38.76,9.5c-1.31,0-3.56-.15-6.79-.48S806.51,494,803,493.4a53.11,53.11,0,0,1-9.21-2.41c-2.59-.95-3.87-2.39-3.87-4.3s1.28-2.87,3.87-2.87a78.53,78.53,0,0,0,31-19.13,146.52,146.52,0,0,0,38.28-64.54,165.28,165.28,0,0,0,6.29-35.86,69.66,69.66,0,0,0-.48-8.61,3.94,3.94,0,0,0-4.36-3.83q-33,0-59.11,23.27a242.87,242.87,0,0,0-46,56.05,429.08,429.08,0,0,0-33.43,67.93q-13.57,35.16-21.32,57.95-2,6.66-10.17,22.8t-17,32.77q-8.72,16.64-22.28,42.28a332.84,332.84,0,0,0,75.09,40.85,232.55,232.55,0,0,0,85.76,16.15,106.71,106.71,0,0,0,32.46-4.75A83.68,83.68,0,0,0,877.1,691a5.19,5.19,0,0,0,2.42-1.9q.48-.93,4.36,0l2.91,2.85a2.82,2.82,0,0,1,1,1.9,43.68,43.68,0,0,1-12.12,28A87.54,87.54,0,0,1,848,741.35a159.33,159.33,0,0,1-34.89,11.4,164.34,164.34,0,0,1-32.94,3.8,143.86,143.86,0,0,1-44.09-6.65,259.73,259.73,0,0,1-40.22-16.63q-19.39-10-38.76-21.37A332.24,332.24,0,0,0,617.4,692q-15.51,13.32-40.21,24.22T532.13,727.1q-13.57,0-23.25-8.08t-8.72-22.32q1-15.18,8.23-26.13A55.6,55.6,0,0,1,527.29,653,85.84,85.84,0,0,1,553,643.5,138.46,138.46,0,0,1,580.58,640.65Zm-16.47,34.2c0-.62-1-1-2.91-1q-7.77,0-18.41,3.32T531.16,691c0,1.9,1.61,2.85,4.85,2.85q.94,0,5.81-2.38a74.79,74.79,0,0,0,9.69-5.7q4.85-3.32,8.72-6.17C562.81,677.7,564.11,676.13,564.11,674.85ZM631,607.4a676.69,676.69,0,0,0,33.43-71.73q14-35.62,31.49-71.72a247.51,247.51,0,0,1,15.51-28q7.74-11.87,15.5-22.32t16.48-21.38q8.72-10.91,19.37-25.17-34.87,36.12-55.23,70.3t-36.82,81.7q-8.72,22.8-19.38,44.65T631,607.4ZM642.6,615q3.85-3.78,9.69-15.2t11.63-24.23q5.8-12.83,10.66-24.22c3.22-7.6,4.84-13,4.84-16.15q-9.69,19-19.38,38.47A371.23,371.23,0,0,0,642.6,615Zm28.1-4.75q1.93-2.85,5.33-8.55a111.31,111.31,0,0,0,6.3-12.35q2.91-6.63,5.33-12.83c1.6-4.11,2.42-7.12,2.42-9-1.3.64-2.76,2.85-4.36,6.65s-2.76,6.34-3.39,7.6a89.09,89.09,0,0,1-7.27,13.3A27.09,27.09,0,0,0,670.7,610.25ZM713.34,449.7q13.56-16.14,25.19-32.78a265,265,0,0,1,25.19-30.87c3.23-3.16,6.14-6.18,8.72-9s5.17-5.84,7.76-9a72.39,72.39,0,0,1-9.69,8.07q-4.86,3.35-9.69,7.13c-1.94,1.28-4.53,3.8-7.76,7.6s-6.46,7.93-9.68,12.35-6.3,8.71-9.21,12.82-5,7.13-6.3,9l-12.6,20.9c0,1.28-.16,1.9-.48,1.9s-.49.33-.49.95Zm86.24,282.15a162.76,162.76,0,0,0-38.76-4.75c.63.64,2.57,1.28,5.81,1.9s6.78,1.28,10.66,1.9,7.42,1.11,10.66,1.42,5.48.48,6.78.48h2.91C798.93,732.8,799.58,732.49,799.58,731.85Zm-30-327.75a5.45,5.45,0,0,0,1.94-3.8l-2.91,3.8-4.85,5.7Zm1,342.95a2.84,2.84,0,0,0-1.94,1h-1A4,4,0,0,0,770.51,747.05Zm6.78,1-1,1Zm37.79-26.6a96.63,96.63,0,0,1-13.57-.95,99.81,99.81,0,0,0-13.56-1,31.77,31.77,0,0,0-4.85.47,29.46,29.46,0,0,1-4.84.48,8.59,8.59,0,0,0,3.87.95H787a74.19,74.19,0,0,0,12.11,1h17c1.94,0,2.91-.31,2.91-1ZM880,378.45a28,28,0,0,1,.49-3.8c.32-1.9-.17-2.85-1.46-2.85l-2.9,11.4v5.7q0,9.51-3.88,13.3c2.58-.62,4.51-4.11,5.82-10.45S880,381,880,378.45Zm10.66,9.5v-3.8c0-1.9-.33-2.85-1-2.85a115.17,115.17,0,0,0-3.87,11.4,41.6,41.6,0,0,0-1.94,11.4c0,1.28.15,2.06.48,2.37a2,2,0,0,1,.49,1.43c.63-1.9,1.77-5.23,3.39-10S890.66,389.85,890.66,388Zm15.51,15.2,1-.95v-1.9a1.94,1.94,0,0,1,.48-1.43,1.89,1.89,0,0,0,.48-1.42l-1-.95a3.79,3.79,0,0,0-1,2.85Z"/></g></svg>