<?xml version="1.0" encoding="UTF-8"?>
<svg xmlns="http://www.w3.org/2000/svg" xmlns:xlink="http://www.w3.org/1999/xlink" viewBox="0 0 35 35" width="35px" height="35px">
<g id="surface37804203">
<path style=" stroke:none;fill-rule:nonzero;fill:rgb(13.725491%,21.176471%,12.54902%);fill-opacity:1;" d="M 17.5 3.5 C 9.769531 3.5 3.5 9.769531 3.5 17.5 C 3.5 25.230469 9.769531 31.5 17.5 31.5 C 25.230469 31.5 31.5 25.230469 31.5 17.5 C 31.5 9.769531 25.230469 3.5 17.5 3.5 Z M 25.042969 14.625 C 25.046875 14.78125 25.050781 14.933594 25.050781 15.085938 C 25.050781 19.832031 21.441406 25.300781 14.835938 25.300781 C 12.808594 25.300781 10.921875 24.707031 9.332031 23.6875 C 9.613281 23.722656 9.898438 23.738281 10.191406 23.738281 C 11.875 23.738281 13.421875 23.164062 14.648438 22.199219 C 13.078125 22.171875 11.75 21.132812 11.292969 19.707031 C 11.515625 19.75 11.738281 19.773438 11.96875 19.773438 C 12.296875 19.773438 12.617188 19.726562 12.917969 19.644531 C 11.273438 19.316406 10.035156 17.863281 10.035156 16.125 C 10.035156 16.109375 10.035156 16.09375 10.035156 16.082031 C 10.519531 16.351562 11.074219 16.511719 11.660156 16.53125 C 10.699219 15.886719 10.066406 14.785156 10.066406 13.542969 C 10.066406 12.882812 10.242188 12.265625 10.550781 11.738281 C 12.320312 13.910156 14.96875 15.339844 17.949219 15.488281 C 17.890625 15.226562 17.859375 14.953125 17.859375 14.671875 C 17.859375 12.6875 19.464844 11.078125 21.449219 11.078125 C 22.480469 11.078125 23.414062 11.515625 24.066406 12.214844 C 24.886719 12.050781 25.65625 11.753906 26.347656 11.34375 C 26.082031 12.179688 25.511719 12.882812 24.769531 13.328125 C 25.496094 13.242188 26.1875 13.050781 26.832031 12.765625 C 26.351562 13.484375 25.746094 14.117188 25.042969 14.625 Z M 25.042969 14.625 "/>
</g>
</svg>
