<svg xmlns="http://www.w3.org/2000/svg" viewBox="0 0 2162 559"><defs><style>.cls-1{fill:#fff;}</style></defs><title>kl word NG</title><g id="Layer_9" data-name="Layer 9"><path class="cls-1" d="M182,149.07a1.84,1.84,0,0,0,.83-.2,1.86,1.86,0,0,1,.84-.21,22.12,22.12,0,0,1,10.25,2.48,29.47,29.47,0,0,1,8.36,6.42,30.72,30.72,0,0,1,5.65,9.11,22,22,0,0,1,1.67,10.15,72.69,72.69,0,0,1-5.85,25.68q-5,11.17-10.88,24.43l3.35.83,4.18,1.65,4.18,1.66q6.28-7.86,16.11-21.53T242,182.41a170.31,170.31,0,0,1,23.84-23.19q12.33-9.72,23.63-9.73a23.93,23.93,0,0,1,12.34,3.31,29.65,29.65,0,0,1,9.41,8.7,40,40,0,0,1,5.65,11.8,36.11,36.11,0,0,1,1.47,12.63q-.44,5.38-4.61,15.95a157.93,157.93,0,0,1-10.45,21.32,120.12,120.12,0,0,1-13.39,18.85q-7.11,8.07-13.38,8.07a15.39,15.39,0,0,1-5-1,36,36,0,0,1-5.86-2.7,23.38,23.38,0,0,1-5-3.72,5.92,5.92,0,0,1-2.09-4.14q0-2.07,6.07-8.7t13.17-15.32A166.81,166.81,0,0,0,291,195.87q6.06-9.94,6.48-19.05a23,23,0,0,0-1.25-8.9q-1.68-5.59-6.28-5.59-6.27,0-13.38,4.55a90.44,90.44,0,0,0-14.64,12,195.15,195.15,0,0,0-14.85,16.57q-7.32,9.1-13.6,18T222.17,230q-5,7.67-7.95,12.21,4.6,8.7,8.79,18.43a143.93,143.93,0,0,0,9.2,18q4.17,7,10.46,19.05a102,102,0,0,0,15.89,22.36,46.31,46.31,0,0,0,7.53,6,19.71,19.71,0,0,0,9.2,3.1c.56,0,1.53.07,2.93.21s2.09.62,2.09,1.45A4.87,4.87,0,0,1,277.8,335a22.69,22.69,0,0,1-5.85,2.69,42.61,42.61,0,0,1-11.3,1.86q-11.29,0-20.49-8.28a104,104,0,0,1-16.94-19.88,202.72,202.72,0,0,1-13.81-24Q203.35,275,198.75,267.1A307.57,307.57,0,0,0,179.09,299q-1.68,3.31-4.18,8.9t-5,11.6q-2.52,6-4.4,10.77a41.11,41.11,0,0,1-2.71,6,7.34,7.34,0,0,1-7.11,4.14,9,9,0,0,1-8.16-4.35A25.91,25.91,0,0,1,144,325.7a69.76,69.76,0,0,1-.62-12.22c.13-4.14.21-7.31.21-9.52a124.26,124.26,0,0,1,7.52-37.07q6.69-18.42,14.43-35.82t14.44-33.75a98,98,0,0,0,7.52-31.68,12,12,0,0,0-2.72-7.87,16.87,16.87,0,0,1-3.55-7.46Zm9.2,103.54a9.46,9.46,0,0,0-1.68-5.39c-1.11-1.65-2.09-3.17-2.92-4.55q-2.52,5.39-6.07,12.83T173.65,271q-3.35,8.07-5.86,15.94a60,60,0,0,0-2.92,13.67q1.24-2.07,5.43-9.53t8.79-15.74q4.59-8.28,8.36-15.11T191.22,252.61ZM175.74,234l3.77-7.45,5.43-10.77a66.6,66.6,0,0,0,4.6-11.6q.42-2.07.63-3.93a15.13,15.13,0,0,1,1.05-3.94q-5,12-7.95,19.05t-5.44,12.84a60.32,60.32,0,0,0-2.51,6.21Zm13-48a76.7,76.7,0,0,0-6.9,15.32q-2.73,8.3-4.81,15.74c.55-1.1,1.46-3.11,2.72-6s2.5-5.87,3.76-8.91,2.44-5.93,3.56-8.7a19.87,19.87,0,0,0,1.67-5.38Zm5.44,29.4a12.68,12.68,0,0,1,.83-1.45,2.5,2.5,0,0,0,.42-1.45l-.84.83Zm46,109.75q-6.71-9.1-11.51-16.57t-8.78-14.7q-4-7.23-8-14.91t-9.41-16.77q.42,4.56,5.23,13.46t10.88,18.64q6,9.74,12.13,18.43A140.48,140.48,0,0,0,240.16,325.08Zm36-92.35a7.21,7.21,0,0,0,2.3-1.66q1.88-1.65,4-3.73a49.06,49.06,0,0,0,3.77-4.14c1.11-1.38,1.67-2.34,1.67-2.9-2.23,1.94-4.33,3.87-6.27,5.8A42.87,42.87,0,0,0,276.13,232.73Zm7.53-17q1.66-1.65,3.13-3.32a13,13,0,0,0,2.31-3.72,30,30,0,0,0-2.93,3.31A42.34,42.34,0,0,0,283.66,215.75Z"/><path class="cls-1" d="M312.09,256.09a114.46,114.46,0,0,1,11.09-17.86,141.23,141.23,0,0,1,16.73-18.9,101.89,101.89,0,0,1,20.08-15q10.67-6,20.7-6a24.48,24.48,0,0,1,14.85,4.35q7.32,4.77,13.18,15.53l.83-.41a3.25,3.25,0,0,1,.42-2.07l1.67-6.21a4,4,0,0,0,.84-2.9,33,33,0,0,0,1.25-4.76,2.4,2.4,0,0,1,2.51-2.28,17.6,17.6,0,0,1,9.63,3.32q5,3.33,5.85,7.89a32.44,32.44,0,0,1-1,10.18,91.06,91.06,0,0,1-4.61,14.13q-3.13,7.68-7.11,16.4t-8.15,17q-4.19,8.73-8.37,17.86t-7.32,17.45q-3.14,8.29-5,15.36c-1.25,4.71-1.61,8.73-1,12-.57,2.22.55,3.32,3.34,3.32a9,9,0,0,0,5-1.66,14.29,14.29,0,0,1,2.93-1.45,8.23,8.23,0,0,1,2.51-.63.37.37,0,0,0,.42.42c.27,0,.42.07.42.2s.13.21.42.21q-.86,3.33-5.65,5.61a20.31,20.31,0,0,1-8.58,2.28,40.47,40.47,0,0,1-14.64-2.9,14,14,0,0,1-9.2-10.76,44.17,44.17,0,0,1,.84-12q1.25-6.21,2.93-18.64-2.94,3.32-9.83,10.56t-14.85,14.7q-8,7.46-15.06,13.26c-4.74,3.87-8.23,5.79-10.46,5.79q-10.46,0-16.73-6.85A31.85,31.85,0,0,1,295,316.31a52.13,52.13,0,0,1,.41-14.53,103.26,103.26,0,0,1,4-16.61q2.71-8.31,6.06-16A103.09,103.09,0,0,1,312.09,256.09ZM300,322.18c.28-.27.35-1.24.21-2.9s-.21-2.62-.21-2.9a30.86,30.86,0,0,1,.63-9.32,23.23,23.23,0,0,0,.21-9.31l-.42-.42c-.28,0-.42.35-.42,1v1.45c-.55,2.48-1,5.11-1.46,7.87a26,26,0,0,0,.21,8.69A14.57,14.57,0,0,0,300,322.18Zm5-1.24c.28-.27.56-1.52.84-3.73s.56-4.69.84-7.45.48-5.32.62-7.67.21-3.79.21-4.34q-1.25,5-2.51,10.14a27,27,0,0,0-.42,10.56Zm9.62,1.65-.41-3.72v4.55l-.42.42Zm82.82-99.39q0-2.89-2.3-7.45t-6.9-4.56q-5.87,0-13.18,6.63A113.87,113.87,0,0,0,360,235a198.7,198.7,0,0,0-14.64,23.4,279.06,279.06,0,0,0-12.13,25.47,167.39,167.39,0,0,0-8,23.61q-2.73,11-1.46,17.6.4,2.07,6.27-2.9a173.75,173.75,0,0,0,14.43-14.29q8.57-9.31,18-21.53t17.56-24.23a180.44,180.44,0,0,0,13.18-22.36Q398.27,229.42,397.42,223.2ZM328,243.5c.55,0,1.39-.63,2.51-1.87s1.53-2,1.25-2.28a53.93,53.93,0,0,1,6.7-7,31.07,31.07,0,0,0,5.85-6.62v-.83a2.54,2.54,0,0,0-1.25.62c-.57.41-.84.76-.84,1-2.24,1.65-4.39,3.38-6.48,5.17a21.74,21.74,0,0,0-5.23,6.84l-1.05,2.07C329,241.42,328.54,242.39,328,243.5Zm6.69,2.07c.28,0,1.18-.76,2.72-2.28s3.27-3.17,5.23-5,3.69-3.52,5.23-5.18a16.17,16.17,0,0,1,3.13-2.9q-4.19,2.91-8.57,6a30.2,30.2,0,0,0-7.32,7.25Zm6.69,7.45,1.68-2.9-2.51,3.31v.42Zm28.86,74.54q.42-1.23.42-6.83v-7.66l-1.67,12Zm5.44-.41c.56,0,.9-.48,1.05-1.45s.06-1.58-.21-1.86v-4.56c-.56,0-.84,1.24-.84,3.73Zm10,.83v.83l.84.82Zm23.84-103.12q.84,0,1.89-2.49a45.05,45.05,0,0,0,1.88-5.59,50.58,50.58,0,0,0,1.25-6.21,38.07,38.07,0,0,0,.42-4.35c-.56,0-.91.49-1,1.45a16,16,0,0,0-.22,1.87,64.41,64.41,0,0,1-2.09,7.86A77,77,0,0,0,409.55,224.86Zm2.51,7.45a88.36,88.36,0,0,1,4.6-8.69,21.22,21.22,0,0,0,2.93-9.53h-.84a59.39,59.39,0,0,1-3.34,9.11A60.23,60.23,0,0,0,412.06,232.31Zm7.95,5.8q.83-1.65,2.3-4.35A56.81,56.81,0,0,0,425,228a61.62,61.62,0,0,0,2.09-6,17.51,17.51,0,0,0,.84-4.56h-.42l-1.26,2.9q-1.66,4.56-3.13,8.91T420,238.11Z"/><path class="cls-1" d="M418.33,331.71q0-12.84,8.16-36A457.85,457.85,0,0,1,448,245.36q13.38-27.12,30.33-55.08a477.18,477.18,0,0,1,35.13-50.73q18.19-22.77,35.76-37.27T581,87.78A36,36,0,0,1,590,89a39.84,39.84,0,0,1,9,3.52,18.69,18.69,0,0,1,6.69,6,15.21,15.21,0,0,1,2.51,8.7q0,13.25-12.62,27.95a201.35,201.35,0,0,1-30.12,28.16,381.57,381.57,0,0,1-35.69,24.43q-18.19,11-29.49,16.78A108.32,108.32,0,0,0,488,224.65q-5.22,11-10.24,20.92c.55.27,1.67-.42,3.34-2.07l2.1-2.08q5.43-5.37,12.33-12.42a167.44,167.44,0,0,1,14.64-13.25,97.82,97.82,0,0,1,16.11-10.56,36.73,36.73,0,0,1,17.15-4.35q13.38,0,20.07,7.25t6.7,20.5q0,16.14-9.38,35.61a169.67,169.67,0,0,1-24,36.65,145,145,0,0,1-32.66,28.58q-18,11.38-35.14,11.39a53.8,53.8,0,0,1-14-2.28q-8.16-2.28-11.5-7.25c.84-.83,2.78-1.58,5.86-2.28s6.54-1.37,10.45-2.07,7.67-1.45,11.3-2.27a52.29,52.29,0,0,0,8.36-2.49q9.19-3.72,21.12-17a242,242,0,0,0,40-61.7q7.11-16.16,7.11-26.1c0-1.37-.07-3-.21-4.76S546,210,543.81,210q-6.27,0-15.26,5.8a138.78,138.78,0,0,0-18.82,14.91q-9.84,9.1-19.87,20.29t-18.62,22.16q-8.57,11-15.05,20.29a108.44,108.44,0,0,0-9,14.7,160.32,160.32,0,0,0-6.69,15.12,160.15,160.15,0,0,1-6.69,15.11q-6.69.84-11.09-.83C419.8,336.4,418.33,334.47,418.33,331.71ZM494,173.92a15.76,15.76,0,0,0,1.46-2.69A7.24,7.24,0,0,1,497,169a21,21,0,0,0,1.25-2.07q-.84,0-4,5T487.35,183q-7.12,12.42-12.34,21.12t-9.2,15.95q-4,7.25-7.32,13.87t-7.11,14.08q-3.76,7.88-8.16,18t-8.36,20.08q-4,9.94-7.12,18.64t-4.39,13.66c-.28,1.66-.56,3.18-.83,4.56a18.56,18.56,0,0,0-.42,2.48v.83c.55,0,1.11-1.51,1.67-4.55q2.09-7.86,6.07-19.26t9-23.4L445.52,264q3.76-8.49,7.74-16.78T461,231.49q3.76-7.45,6.69-12.43c1.39-2.48,3.35-5.93,5.85-10.35s5.09-8.91,7.74-13.46,5.16-8.83,7.53-12.84S492.92,175.58,494,173.92Zm-22.17,51.35q-1.68.84-4.81,6.63T460,245.77q-4,8.08-8.16,17.6t-7.94,18.43q-3.77,8.91-6.7,15.74t-3.76,9.32a53.37,53.37,0,0,0,3.14-6q2.72-5.58,6.69-14.08T452,268.34q4.81-9.93,9-18.84T468.11,234Q471,227.36,471.87,225.27ZM462.67,265c1.39-2.21,2.78-4.62,4.18-7.25a30.86,30.86,0,0,0,2.93-7.66A72.16,72.16,0,0,0,462.67,265Zm9.62-19c-.28,0,0-.41.84-1.24l1.25-2.49,2.93-5.38q3.35-6.62,6.9-13.05t6.9-13q-4.61,8.28-9.41,16.77t-9,17.19C472.71,245.57,472.56,246,472.29,246Zm9.2-39.76a14.6,14.6,0,0,0,4.39-5q2.3-3.72,3.56-5.79,9.62-16.15,19.66-31.06T530,134.16a18.45,18.45,0,0,0,2.09-3.72A571.23,571.23,0,0,0,481.49,206.22Zm18.41-11.59a14.63,14.63,0,0,1,1.88-2.9,12.55,12.55,0,0,0,1.88-3.31Zm.41-29a11.72,11.72,0,0,1,1.47-2.07,3.62,3.62,0,0,0,1-2.07h-.41c-.57,0-1.05.55-1.47,1.65A7.91,7.91,0,0,0,500.31,165.64ZM503.66,188c.56,0,1.6-1.38,3.14-4.14s2.44-4.41,2.72-5l4.6-7.45q-2.5,3.72-5.23,7.66a67.57,67.57,0,0,0-4.81,8.07A1.17,1.17,0,0,1,503.66,188Zm94.53-82.83q0-2.48-2.72-4.76a8.33,8.33,0,0,0-5.23-2.28q-6.69,0-14.64,5.39a97,97,0,0,0-16.1,14.08q-8.16,8.7-16.31,19.26t-15.06,20.91q-6.9,10.35-12.34,19.46t-8.36,14.5q10-5.39,25.51-14.91a274.91,274.91,0,0,0,29.91-21.33,167.89,167.89,0,0,0,24.88-24.85Q598.19,117.61,598.19,105.17Zm-54,145a74.58,74.58,0,0,0,4.81-11,34.44,34.44,0,0,0,2.3-11.39c-.56,0-.9.48-1,1.45a15.23,15.23,0,0,0-.21,1.86,38.2,38.2,0,0,1-3.35,9.73A21.82,21.82,0,0,0,544.23,250.12Zm.84,10.77A68.89,68.89,0,0,0,556,235.21c-.57,1.11-1.4,2.84-2.51,5.18s-2.24,4.9-3.35,7.66-2.16,5.32-3.14,7.66A40.49,40.49,0,0,0,545.07,260.89Zm12.74-3.31a48.16,48.16,0,0,0,3.19-5.39,18.65,18.65,0,0,0,1.92-6.21,4.8,4.8,0,0,0-3.84,4.56A54.42,54.42,0,0,1,557.81,257.58Z"/><path class="cls-1" d="M612.41,201.25c0-1.1,1-1.79,2.92-2.07s3.07-.41,3.35-.41a17.69,17.69,0,0,1,12.76,5.59q5.64,5.59,5.64,12.63,0,7.45-4.18,18A192.57,192.57,0,0,1,622.45,257q-6.29,11.4-13.6,23.2t-13.59,21.74q-6.28,9.93-10.46,17.6t-4.18,10.56a8.49,8.49,0,0,0,.62,3.93,3.57,3.57,0,0,0,1.47,1.45,14.4,14.4,0,0,0,2.09.83,3.81,3.81,0,0,1,2.09,2.07c0,.83-1.25,1.52-3.76,2.07a30.06,30.06,0,0,1-5,.83,12.41,12.41,0,0,1-5.65-1.66,27.78,27.78,0,0,1-5.85-4.14,25.16,25.16,0,0,1-4.61-5.59,11.63,11.63,0,0,1-1.88-6q0-5.38,4-14.7t10-20.5q6.06-11.19,13.18-23.2t13.18-23q6.06-11,10-19.88t4-13.46a8,8,0,0,0-1-3.93A7.87,7.87,0,0,1,612.41,201.25ZM564.3,323.42a12.81,12.81,0,0,0,1.68-4.14c.28-1.38.55-2.75.83-4.14Zm5.86,0c.56,0,1.26-1.65,2.09-5s1.39-5.52,1.68-6.62a35.1,35.1,0,0,0-2.51,5.17,17.94,17.94,0,0,0-1.68,5.18V323C569.74,323.29,569.88,323.42,570.16,323.42Zm44.76-97.73c.27,0,.62-.62,1-1.87s.84-2.55,1.26-3.93.83-2.69,1.25-3.93a9.77,9.77,0,0,0,.63-2.7V212c-.56,0-1.12,1.18-1.67,3.52a28,28,0,0,1-1.26,4.35c-.28.83-.56,1.73-.84,2.69A11.18,11.18,0,0,0,614.92,225.69Zm2.51,8.69c.27,0,.76-.68,1.46-2.07s1.39-2.9,2.09-4.55,1.32-3.31,1.88-5a13.44,13.44,0,0,0,.84-3.31v-1.66c-.28,0-.77,1-1.46,2.9s-1.19,3.17-1.47,3.73-.91,2.21-1.88,5A25.06,25.06,0,0,0,617.43,234.38Zm11.71,0a11.51,11.51,0,0,0,1.67-5.79v-1.66a29.31,29.31,0,0,0-1.26,3.73A15.69,15.69,0,0,0,629.14,234.38Zm.83-70q0-7.05,4.81-10.57a18.35,18.35,0,0,1,11.09-3.52,22.66,22.66,0,0,1,11.08,2.9q5.24,2.91,5.23,9.53a15.77,15.77,0,0,1-3.76,10.35,11.93,11.93,0,0,1-9.62,4.56q-5,0-11.92-3.73T630,164.4Z"/><path class="cls-1" d="M780.13,87a40.38,40.38,0,0,1,9.62,1.24,31,31,0,0,1,9,3.73,21.94,21.94,0,0,1,6.7,6.63,17,17,0,0,1,2.72,9.52q0,14.5-11.12,29.41A145.63,145.63,0,0,1,769.78,165a279.26,279.26,0,0,1-33.55,22.57q-17.4,9.93-30,14.49-2.94,5-8.19,15.12T686.53,240q-6.3,12.65-12.79,26.72t-12,26.71Q656.35,306,653,315.76t-3.35,13.87a12.88,12.88,0,0,0,.21,2.08A1.34,1.34,0,0,0,651.3,333q3.76,0,11.71-8.08t16.32-17.6q8.35-9.52,15.26-17.6c4.61-5.38,7.32-8.07,8.16-8.07a9.66,9.66,0,0,1,5,1.24q-2.5,5-9.83,14.49t-16.1,19.26a151,151,0,0,1-17.57,16.77q-8.79,7-14.64,7a24.87,24.87,0,0,1-14.56-4.14q-5.93-4.14-5.94-13.67,0-10.75,6.07-29.19a393.61,393.61,0,0,1,15.89-40q9.82-21.52,22-44.72T697.31,165q12.13-20.51,23-36.24t18.4-23.19a75,75,0,0,1,18.62-13.88Q766.75,87,780.13,87ZM633.64,321.35q-.42-.83-.42,2.07t.42,2.07Zm5.53,4.56a12.87,12.87,0,0,1,.21-2.07,15,15,0,0,0,.21-2.49c-.28-1.65-.42-2.55-.42-2.69s-.14.21-.42,1a16.74,16.74,0,0,1-.21,2.27,16.67,16.67,0,0,0-.2,2.28C638.34,325.91,638.61,326.46,639.17,325.91ZM642.52,299q3.76-7,6.06-11.39t4.19-8.49c1.25-2.76,2.15-4.69,2.72-5.8q.4-1.24,3.13-7.45t5.86-13.05q3.13-6.83,5.23-12.42c1.39-3.73,1.94-5.73,1.67-6s-.91.7-1.88,2.9-2,4.77-3.14,7.66-2.23,5.67-3.35,8.29a25,25,0,0,1-2.09,4.35q-.84,2.07-4,8.9t-6.48,14.08q-3.36,7.24-5.86,13.05C642.94,297.47,642.24,299.27,642.52,299Zm20.7-29.2c1-2.07,2.09-4.48,3.35-7.25s2.44-5.31,3.56-7.66a42.61,42.61,0,0,1,2.5-4.76c.28-.83,1.19-3,2.72-6.42s3.14-7.1,4.81-11q2.93-7,6.28-15.33-2.94,5.4-5,9.94-2.1,4.16-4,8.08T674.73,241q-.42.84-2.51,6t-4.4,11l-6.06,15.32A18.9,18.9,0,0,1,663.22,269.79Zm1.47-29.61q4.17-9.1,6.48-14.49t4.39-10.36a48.46,48.46,0,0,1,2.93-6.21,50.88,50.88,0,0,1,2.3-5q1.88-3.72,4-8.28,2.09-5,5-11.18-3.76,7-6.69,13.25-2.51,5.38-5,10.15c-1.67,3.17-2.79,5.32-3.34,6.42q-.42.83-2.1,5t-3.55,8.9c-1.26,3.18-2.3,6-3.14,8.49S664.69,240.46,664.69,240.18ZM793.93,107.25a11,11,0,0,0-.41-5.39,8.43,8.43,0,0,0-2.72-3.52,11.4,11.4,0,0,0-5.65-1.86,13.94,13.94,0,0,0-6.48.62q-2.73,1-6.9,3.11a61.17,61.17,0,0,0-14.23,11,138,138,0,0,0-15,19.26q-2.52,4.14-6.49,11t-8.15,14.7q-4.19,7.88-8.37,15.95t-7.11,14.28a12.22,12.22,0,0,1-1,2.28q-.21.21.63.21,7.95-4.14,13.39-7T736,175.58q5.24-3.32,8.16-5.39,5-3.72,13.18-9.94a165.63,165.63,0,0,0,16.1-14.08,87.69,87.69,0,0,0,13.8-17.8A48.31,48.31,0,0,0,793.93,107.25Z"/><path class="cls-1" d="M768.41,201.25c0-1.1,1-1.79,2.93-2.07s3.06-.41,3.35-.41a17.67,17.67,0,0,1,12.75,5.59Q793.1,210,793.09,217q0,7.45-4.18,18A192.71,192.71,0,0,1,778.45,257q-6.27,11.4-13.59,23.2t-13.6,21.74q-6.27,9.93-10.46,17.6t-4.18,10.56a8.33,8.33,0,0,0,.63,3.93,3.55,3.55,0,0,0,1.46,1.45,15.39,15.39,0,0,0,2.09.83,3.86,3.86,0,0,1,2.1,2.07c0,.83-1.26,1.52-3.77,2.07a29.9,29.9,0,0,1-5,.83,12.38,12.38,0,0,1-5.64-1.66,27.84,27.84,0,0,1-5.86-4.14,25.11,25.11,0,0,1-4.6-5.59,11.53,11.53,0,0,1-1.88-6q0-5.38,4-14.7t10-20.5q6.06-11.19,13.17-23.2t13.18-23q6.06-11,10-19.88t4-13.46a8,8,0,0,0-1-3.93A7.88,7.88,0,0,1,768.41,201.25Zm-48.1,122.17a12.56,12.56,0,0,0,1.67-4.14l.84-4.14Zm5.86,0c.55,0,1.25-1.65,2.09-5s1.39-5.52,1.67-6.62a36.18,36.18,0,0,0-2.51,5.17,17.79,17.79,0,0,0-1.67,5.18V323C725.75,323.29,725.88,323.42,726.17,323.42Zm44.75-97.73c.28,0,.63-.62,1.05-1.87s.83-2.55,1.25-3.93.84-2.69,1.26-3.93a10,10,0,0,0,.62-2.7V212c-.56,0-1.11,1.18-1.67,3.52a28.5,28.5,0,0,1-1.25,4.35c-.29.83-.57,1.73-.84,2.69A11.18,11.18,0,0,0,770.92,225.69Zm2.51,8.69c.28,0,.77-.68,1.46-2.07s1.4-2.9,2.1-4.55,1.32-3.31,1.88-5a14,14,0,0,0,.84-3.31v-1.66c-.29,0-.78,1-1.47,2.9s-1.19,3.17-1.46,3.73-.91,2.21-1.89,5A25.06,25.06,0,0,0,773.43,234.38Zm11.71,0a11.51,11.51,0,0,0,1.67-5.79v-1.66a27.64,27.64,0,0,0-1.25,3.73A15.17,15.17,0,0,0,785.14,234.38Zm.84-70q0-7.05,4.81-10.57a18.3,18.3,0,0,1,11.08-3.52,22.67,22.67,0,0,1,11.09,2.9q5.22,2.91,5.23,9.53a15.78,15.78,0,0,1-3.77,10.35,11.93,11.93,0,0,1-9.62,4.56q-5,0-11.92-3.73T786,164.4Z"/><path class="cls-1" d="M825.71,199.18a23.54,23.54,0,0,1,15.9,5.8,21.66,21.66,0,0,1,7.52,14.91,40.73,40.73,0,0,1-1.88,14.49,131.36,131.36,0,0,1-5.64,14.91q-3.36,7.46-7.12,14.5A137.63,137.63,0,0,0,828.22,277q4.17-3.32,11.71-10.35T856.45,251q9-8.7,18.83-17.81t19.24-16.77A148.54,148.54,0,0,1,911.88,204c5.29-3.18,9.62-4.77,13-4.77a10.07,10.07,0,0,1,6.7,2.49,9.26,9.26,0,0,1,3.34,6.21q.4,4.56-4,13.25T919.61,241q-6.9,11.18-14.84,23.61t-14.85,24.64a171.46,171.46,0,0,0-11.09,23.19q-4.19,11-3.34,18.84c0,1.39.83,2.07,2.5,2.07a20.48,20.48,0,0,0,5-.62c1.68-.41,3.35-.76,5-1a20,20,0,0,1-6.9,6.21,18.08,18.08,0,0,1-9,2.48q-7.53,0-11.29-4.35t-4.19-11.38q-1.24-11.6,4-25.27a218.85,218.85,0,0,1,12.75-27.33q7.53-13.67,15.69-26.5t13.59-22.37a233,233,0,0,0-49.14,42.24q-22,24.85-42,49.7a42.2,42.2,0,0,0-4,5.18q-2.73,3.93-5.86,7.87t-6.28,7.24c-2.09,2.22-3.69,3.32-4.8,3.32a10.32,10.32,0,0,1-6.49-2.49,67.82,67.82,0,0,1-5.64-5,98.06,98.06,0,0,1,5.43-18.84q4.18-11,9.41-23t10.88-24.64q5.64-12.63,10.25-23.81t7.32-19.88q2.71-8.7,2.3-13.66a24.35,24.35,0,0,0-1.47-4.56c-.69-1.66-.77-2.9-.2-3.73Zm3.76,16.15c.28-2.2.14-3-.41-2.27s-1.12,2.42-1.68,5.17q-.42,2.09-1.46,5.59t-2.09,7.25a51.9,51.9,0,0,1-2.3,6.63c-.84,1.93-1.4,3.17-1.67,3.72a6.92,6.92,0,0,0-.84,2.08q.83.83,2.09-2.28c.84-2.07,1.95-4.76,3.35-8.08a55.58,55.58,0,0,0,3.34-9.52A71.12,71.12,0,0,0,829.47,215.33Zm4.61,10.77c-.57-2.21-.7-3.31-.42-3.31a3.28,3.28,0,0,1-.42,1.24,6.35,6.35,0,0,0-.84,2.49q-2.1,6.63-4.18,11.8t-3.76,9.32c-1.4,3.87-1.89,5.52-1.47,5s1.6-2.76,3.56-6.63q2.91-6.21,5-11.8A52.49,52.49,0,0,0,834.08,226.1Zm8.78,8.28q0-3.3-.84-2.07a7.57,7.57,0,0,0-1,2.49q-.63,2.07-1.26,4.35t-1.46,6c.84-1.65,1.53-3.1,2.09-4.35a38.15,38.15,0,0,0,1.46-3.72A22.66,22.66,0,0,1,842.86,234.38Zm18.4,84.9a61.09,61.09,0,0,0,1.26-7.45c-.28,0-.56.48-.84,1.45a37.64,37.64,0,0,0-.83,3.72q-.44,2.28-.84,4.35a17.39,17.39,0,0,0-.42,2.9Q860,326.33,861.26,319.28Zm9.21-13.66c-.28,0-.7.76-1.26,2.27s-1.19,3.32-1.88,5.39a53.47,53.47,0,0,0-1.67,6,22.58,22.58,0,0,0-.63,4.14c.27.83.55.62.84-.62s.83-3.38,1.67-6.42q.83-3.72,1.67-6.62a11.5,11.5,0,0,1,1.26-3.32Z"/><path class="cls-1" d="M1053.67,213.26a29.53,29.53,0,0,0,7.53-9.31,25,25,0,0,1,7.53-8.91,26.69,26.69,0,0,1,6.9,2.9,6.43,6.43,0,0,1,3.56,5.8q0,.82-3.35,7.25t-8.58,15.94q-5.23,9.52-11.29,20.71t-11.71,21.12q-5.65,9.93-10,17.6t-5.65,10.14q-5.43,9.94-16.1,28.79t-24.26,41.62q-13.61,22.77-29.49,46.59T927.35,457q-15.48,19.66-29.91,32.1t-25.3,12.42q-13.38,0-22.38-6.42t-9-20.5q0-16.15,9.2-34a190.23,190.23,0,0,1,23-34.37,279.78,279.78,0,0,1,29.49-30.44,236.24,236.24,0,0,1,28.66-22.16,208,208,0,0,1,23.42-13q12.54-6,24.68-10.56a9.14,9.14,0,0,1,3.13-1.24,9,9,0,0,0,3.14-1.25q.84-.4,5.23-7.66t9.83-16.36q5.43-9.1,10-17.18c3.06-5.39,5-8.91,5.85-10.56q-5.43,5-16.52,15.53t-23.84,21.33a274.77,274.77,0,0,1-24.89,18.84q-12.13,8.07-19.24,8.07a15.52,15.52,0,0,1-8.57-2.27,18.51,18.51,0,0,1-5.86-6,27.32,27.32,0,0,1-3.34-8.07,36.12,36.12,0,0,1-1-8.49,64.17,64.17,0,0,1,5.23-24.65,147.07,147.07,0,0,1,13-24.43,206.07,206.07,0,0,1,16.94-22.36q9.19-10.56,17.57-18.84A93.18,93.18,0,0,1,993,206.22q16.31-7.46,31.79-7.45a43.59,43.59,0,0,1,16.52,3.52A23,23,0,0,1,1053.67,213.26Zm-187,278.3q7.95,0,18.41-8.9a166.08,166.08,0,0,0,21.54-22.78Q917.72,446,929.23,429t21.33-33.55q9.83-16.56,17.36-30.64t11.3-21.95q-10,2.07-23.22,9.94a232.24,232.24,0,0,0-27,19.05,316.65,316.65,0,0,0-27,24.64,281.84,281.84,0,0,0-23.63,27.33,154,154,0,0,0-16.73,27.33q-6.27,13.45-6.27,23.82a31.31,31.31,0,0,0,2.09,11Q859.6,491.56,866.7,491.56Zm61.49-200.85c1.11-1.66,2.23-3.45,3.34-5.39q4.61-7.45,9.42-14.49t9.41-14.08q-2.94,3.31-6.28,7.45t-6.48,8.7q-3.14,4.56-5.65,9.11A45.39,45.39,0,0,0,928.19,290.71Zm4.6,38.92c1.11-.27,2.09-.55,2.93-.82a21.37,21.37,0,0,0,2.92-1.25q4.61-2.06,12.55-8.28T969,304.17q9.82-8.91,20.7-19.26t20.92-20.09q10-9.72,18.19-18.22t12.76-13.46a36.9,36.9,0,0,0,3.76-5.38,12.17,12.17,0,0,0,1.68-6.21q0-9.95-10.46-9.94-7.53,0-18.19,6.42A162.4,162.4,0,0,0,996,234.59a259.76,259.76,0,0,0-23.22,23,275.27,275.27,0,0,0-20.49,25.67,180.8,180.8,0,0,0-14.64,24.44q-5.65,11.6-5.65,19.05A4,4,0,0,0,932.79,329.63ZM935.72,287A243.57,243.57,0,0,0,952,265.44a203,203,0,0,1,16.73-21.53c-1.4.28-3.76,2.35-7.11,6.21s-6.84,8.22-10.46,13.05-6.9,9.59-9.83,14.28S936.55,285.32,935.72,287Zm11.71-2.07a4.54,4.54,0,0,0,1.67-2.9l-1.25,1.24Zm44.75,51.76c-.83,0-1.74.9-2.72,2.7s-1.6,3-1.88,3.52a48.17,48.17,0,0,1-3.55,6.42q-2.73,4.35-5.65,8.9c-2,3-3.63,5.86-5,8.49s-2.09,4.21-2.09,4.76c.55-1.1,2-3.45,4.18-7s4.6-7.32,7.11-11.18,4.74-7.45,6.7-10.77a38.87,38.87,0,0,0,2.92-5.38Zm-13,11.19a3.6,3.6,0,0,0,1.25-2.49,4.73,4.73,0,0,1-.84,1.24A1.68,1.68,0,0,0,979.22,347.86Zm2.51-4.14c.27,0,.55-.35.83-1s.56-1.31.84-1.86l-1.26.82a1.91,1.91,0,0,1-.2.83A2.73,2.73,0,0,0,981.73,343.72Zm10.45-18.64c.28,0,.7-.27,1.26-.83a50.89,50.89,0,0,0,4.81-6.83q3.56-5.6,7.53-12.43t7.53-13q3.54-6.21,4.39-7.87l5.85-9.94q2.92-5,5.44-9.94-3.77,3.74-8.57,12.22t-9.83,18q-5,9.54-9.83,18t-8.16,11.8q.42,0,.21.42A.68.68,0,0,1,992.18,325.08Zm49.36-72.89q-11.3,17.4-22.8,36a376.72,376.72,0,0,0-20.28,37.27,83.92,83.92,0,0,0,10.87-15.11q5.43-9.31,11.09-19.47t10.87-20.08a187.85,187.85,0,0,1,10.25-17.4Zm-43.08,90.7a4.56,4.56,0,0,0,1.67-2.9l-1.25,1.24Z"/><path class="cls-1" d="M1186.55,289.83q6.69,0,13-10.11a218.14,218.14,0,0,0,13.17-25.5q6.9-15.37,15.06-33a219.54,219.54,0,0,1,18.81-33,106.55,106.55,0,0,1,24.46-25.5q13.8-10.12,32.19-10.12,13.38,0,21.33,8.12t7.1,21.11a52.35,52.35,0,0,1-3.55,16.23,54.61,54.61,0,0,1-8.57,14.82,42.75,42.75,0,0,1-13,10.76,34.65,34.65,0,0,1-16.73,4.06c-.56,0-1.53-.07-2.92-.21s-2.86-.33-4.39-.61a23,23,0,0,1-4-1c-1.12-.41-1.68-1-1.68-1.84s.56-1.23,1.68-1.23a34,34,0,0,0,13.38-8.17A64,64,0,0,0,1302,202a62.82,62.82,0,0,0,6.48-14.91,69.88,69.88,0,0,0,2.72-15.32,29,29,0,0,0-.21-3.68,1.7,1.7,0,0,0-1.88-1.64q-14.22,0-25.51,9.95a103.85,103.85,0,0,0-19.86,24,182.33,182.33,0,0,0-14.42,29q-5.87,15-9.2,24.76a68.07,68.07,0,0,1-4.39,9.74q-3.56,6.91-7.32,14t-9.61,18.06a144.17,144.17,0,0,0,32.4,17.46,101.31,101.31,0,0,0,37,6.9,46.79,46.79,0,0,0,14-2,36.2,36.2,0,0,0,12.33-6.9,2.25,2.25,0,0,0,1-.82c.14-.26.76-.26,1.88,0l1.25,1.22a1.19,1.19,0,0,1,.42.81,18.56,18.56,0,0,1-5.22,12,37.7,37.7,0,0,1-11.92,8.32,69.36,69.36,0,0,1-15,4.87,71.36,71.36,0,0,1-14.22,1.63,62.54,62.54,0,0,1-19-2.85,112.61,112.61,0,0,1-17.35-7.1q-8.37-4.26-16.73-9.13a144.67,144.67,0,0,0-17.14-8.53,69.78,69.78,0,0,1-17.35,10.35q-10.66,4.68-19.44,4.67a15.26,15.26,0,0,1-10-3.45c-2.78-2.29-4-5.48-3.76-9.54a22.22,22.22,0,0,1,3.55-11.16,23.84,23.84,0,0,1,8.16-7.51,37.11,37.11,0,0,1,11.08-4.06A60.42,60.42,0,0,1,1186.55,289.83Zm-7.1,14.62c0-.27-.42-.41-1.26-.41a27.75,27.75,0,0,0-7.94,1.42c-3.07,1-4.75,2.91-5,5.89,0,.81.69,1.21,2.09,1.21a10.2,10.2,0,0,0,2.51-1,31.85,31.85,0,0,0,4.18-2.44c1.39-.94,2.65-1.82,3.76-2.63S1179.45,305,1179.45,304.45Zm28.84-28.82A287,287,0,0,0,1222.72,245q6.06-15.22,13.59-30.65a103.55,103.55,0,0,1,6.69-12c2.22-3.39,4.45-6.56,6.69-9.54s4.6-6,7.1-9.14,5.3-6.7,8.37-10.75q-15.06,15.42-23.84,30a189.54,189.54,0,0,0-15.88,34.91q-3.76,9.75-8.37,19.08T1208.29,275.63Zm5,3.24a27.15,27.15,0,0,0,4.18-6.49q2.51-4.87,5-10.35t4.6-10.36q2.09-4.86,2.09-6.9-4.18,8.13-8.36,16.44A158,158,0,0,0,1213.31,278.87Zm12.13-2c.55-.81,1.32-2,2.3-3.65a46.54,46.54,0,0,0,2.71-5.28c.84-1.89,1.6-3.71,2.3-5.48a12,12,0,0,0,1-3.85c-.56.27-1.19,1.21-1.88,2.84s-1.19,2.71-1.47,3.25a38.16,38.16,0,0,1-3.13,5.68A11.44,11.44,0,0,0,1225.44,276.84Zm18.39-68.6q5.85-6.9,10.87-14a113.9,113.9,0,0,1,10.87-13.2c1.4-1.35,2.65-2.63,3.77-3.85s2.22-2.5,3.34-3.86a30.25,30.25,0,0,1-4.18,3.45q-2.1,1.42-4.18,3.05a18.14,18.14,0,0,0-3.35,3.24q-2.09,2.44-4.18,5.28c-1.39,1.9-2.71,3.72-4,5.48s-2.16,3-2.71,3.86l-5.44,8.93q0,.81-.21.81c-.14,0-.21.14-.21.4ZM1281,328.8a70.87,70.87,0,0,0-16.72-2,6,6,0,0,0,2.51.81c1.39.28,2.93.55,4.6.82s3.2.47,4.6.6,2.36.21,2.92.21h1.26C1280.76,329.21,1281,329.07,1281,328.8Zm-13-140a2.3,2.3,0,0,0,.84-1.63l-1.25,1.63-2.1,2.43Zm.42,146.54a1.22,1.22,0,0,0-.83.4h-.42A1.74,1.74,0,0,0,1268.5,335.3Zm2.93.4-.42.41Zm16.3-11.36a42.61,42.61,0,0,1-5.85-.41,42.72,42.72,0,0,0-5.85-.41,12.88,12.88,0,0,0-2.09.21,13,13,0,0,1-2.09.2,3.77,3.77,0,0,0,1.67.41h2.09a32.72,32.72,0,0,0,5.23.4h7.31c.84,0,1.26-.13,1.26-.4Zm28-146.54a10.58,10.58,0,0,1,.21-1.63c.13-.81-.08-1.21-.63-1.21l-1.26,4.87v2.43c0,2.71-.56,4.61-1.67,5.68q1.66-.39,2.51-4.46A33.06,33.06,0,0,0,1315.75,177.8Zm4.6,4.06v-1.63c0-.81-.15-1.22-.42-1.22a48.75,48.75,0,0,0-1.67,4.88,17.26,17.26,0,0,0-.84,4.87c0,.54.06.88.21,1a.82.82,0,0,1,.21.61c.27-.81.76-2.23,1.46-4.26A16.15,16.15,0,0,0,1320.35,181.86Zm6.69,6.49.42-.41v-.81a.83.83,0,0,1,.2-.61.78.78,0,0,0,.21-.6l-.41-.41a1.59,1.59,0,0,0-.42,1.22Z"/><path class="cls-1" d="M1355,204.18a1.89,1.89,0,0,1,1.47-2,12.08,12.08,0,0,1,3.13-.4h1.26a33.83,33.83,0,0,1,17.77,4.66q7.72,4.68,7.73,15.63,0,9.35-6.06,22.94t-14.22,28.21Q1358,287.8,1350,301.6a176.81,176.81,0,0,0-11.71,23.55,224.37,224.37,0,0,0,38-33.29,316.3,316.3,0,0,0,31.35-39.37c1.12-1.63,3.14-5.14,6.07-10.56s6.06-11,9.41-16.64,6.48-10.82,9.4-15.42,5-7.17,6.06-7.72a5,5,0,0,1,2.1-.4h2.09A14.08,14.08,0,0,1,1450,204q3.77,2.24,3.77,5.89t-4,11.77q-4,8.12-9.82,19.07t-13,23.35q-7.12,12.38-13,23.95t-9.83,21.51q-4,9.94-4,16a10.46,10.46,0,0,0,1,4.87q1,2,4.39,2a11.94,11.94,0,0,0,5.65-1.43,10.29,10.29,0,0,1,4.39-1.42c.55,0,.84.41.84,1.22a4.72,4.72,0,0,1-1.89,3.65,19.89,19.89,0,0,1-4.39,2.85,39,39,0,0,1-5,2,14.55,14.55,0,0,1-4.18.81,21.5,21.5,0,0,1-15.89-6.29,20.79,20.79,0,0,1-6.27-15.23,34,34,0,0,1,1.67-10.75,34.29,34.29,0,0,0,1.67-10.76q-3.35,3.64-9.2,10.35t-12.75,13.6a120.75,120.75,0,0,1-13.8,12q-6.9,5.08-11.91,5.08a21.56,21.56,0,0,1-11.92-3.66,11.45,11.45,0,0,1-5.64-10.14q0-10.56,7.1-25.78t15.47-31.05q8.37-15.84,15.47-30.25t7.11-23.34a7.4,7.4,0,0,0-3.55-6.69C1356.23,205.74,1355,204.73,1355,204.18Zm-33,116.5a11.91,11.91,0,0,0,.42-3.65c-.27-.27-.69.61-1.25,2.64a19.1,19.1,0,0,0-.84,4.26v.81a.37.37,0,0,0,.42.41C1321,325.15,1321.46,323.66,1322,320.68Zm5.86-.4a4,4,0,0,0,.42-1.83,4,4,0,0,1,.41-1.83,3.49,3.49,0,0,1,.42-1.62c-.28-.27-.83.68-1.67,2.84a48.63,48.63,0,0,0-1.67,4.87,1.69,1.69,0,0,1-.21.81,2.79,2.79,0,0,0-.21,1.22c0,.55.14.81.42.81S1326.76,323.8,1327.87,320.28Zm39.3-101.49q-1.26,0-1.67,4.88l-2.09,6.9a5.9,5.9,0,0,0-.84,2.43c.27.28.63-.06,1-1s.9-2.1,1.46-3.45,1-2.7,1.46-4.06a11.64,11.64,0,0,0,.63-3.25Zm5,7.72v-2.84c-.29,0-.42.14-.42.4a1.72,1.72,0,0,1-.21.81,1.82,1.82,0,0,0-.21.82,56.84,56.84,0,0,0-3.34,8.93q-1.26,4.47-1.26,4.87c.28.27,1.11-1.15,2.51-4.26s2.37-5.35,2.93-6.7Zm8.36,6.9a3,3,0,0,0,.83-2.23v-1.83a1.17,1.17,0,0,1-.41.81,2.3,2.3,0,0,0-.84,1.63,13,13,0,0,0-.84,4.05l.42-.4a1.15,1.15,0,0,0,.42-.81A3,3,0,0,1,1380.55,233.41Zm5,76.31a9.08,9.08,0,0,1,.21-1.82,9.09,9.09,0,0,0,.21-1.83v-1.62c-.56-.54-1.11.67-1.67,3.65a42.63,42.63,0,0,0-.84,7.71v3.65a.81.81,0,0,1,.21-.6,1.57,1.57,0,0,0,.21-1,23.58,23.58,0,0,1,.42-3.65A21,21,0,0,1,1385.56,309.72Zm8-9.33a1.7,1.7,0,0,1,.21-.82,1.69,1.69,0,0,0,.21-.81v-.4c-.28,0-.7.68-1.26,2a50.19,50.19,0,0,0-1.67,4.87c-.56,1.89-1.12,3.79-1.67,5.68a17,17,0,0,0-.84,4.47v3.24c.28,0,1.11-2.7,2.51-8.12q.84-3.24,1.46-6.08A41.87,41.87,0,0,1,1393.51,300.39Zm4.18,17.05c0-.82-.14-1.22-.42-1.22V317C1397.27,317.58,1397.41,317.71,1397.69,317.44Z"/><path class="cls-1" d="M1478.38,201.34a23.8,23.8,0,0,1,15.89,5.68,21.11,21.11,0,0,1,7.52,14.62,39.19,39.19,0,0,1-1.88,14.2,125.43,125.43,0,0,1-5.64,14.62q-3.36,7.3-7.11,14.21a133.76,133.76,0,0,0-6.27,13q4.17-3.24,11.71-10.14t16.51-15.43q9-8.52,18.82-17.45t19.23-16.44A149.65,149.65,0,0,1,1564.51,206c5.29-3.11,9.62-4.67,13-4.67a10.13,10.13,0,0,1,6.69,2.44,9.05,9.05,0,0,1,3.35,6.09q.4,4.47-4,13t-11.29,19.49q-6.88,11-14.84,23.14t-14.84,24.15a166.84,166.84,0,0,0-11.08,22.73q-4.18,10.77-3.35,18.47c0,1.36.84,2,2.51,2a21,21,0,0,0,5-.61c1.67-.4,3.35-.74,5-1a19.94,19.94,0,0,1-6.9,6.09,18.38,18.38,0,0,1-9,2.43q-7.53,0-11.29-4.26a17.9,17.9,0,0,1-4.18-11.16q-1.26-11.37,4-24.77A212.59,212.59,0,0,1,1526,272.78q7.53-13.39,15.68-26t13.59-21.92a231.76,231.76,0,0,0-49.13,41.41q-21.95,24.36-42,48.71a41.79,41.79,0,0,0-4,5.07q-2.71,3.87-5.85,7.72t-6.27,7.1c-2.09,2.17-3.7,3.25-4.81,3.25a10.42,10.42,0,0,1-6.48-2.44,67.37,67.37,0,0,1-5.65-4.87,95.53,95.53,0,0,1,5.44-18.47q4.18-10.75,9.41-22.53t10.87-24.15q5.64-12.37,10.24-23.34t7.32-19.49q2.71-8.52,2.3-13.39a23.66,23.66,0,0,0-1.47-4.47c-.7-1.62-.77-2.84-.2-3.65Zm3.76,15.83c.28-2.16.14-2.9-.42-2.23s-1.11,2.37-1.67,5.07q-.42,2-1.46,5.48t-2.09,7.11a50.53,50.53,0,0,1-2.3,6.49c-.84,1.9-1.4,3.12-1.67,3.66a6.75,6.75,0,0,0-.84,2c.56.55,1.26-.2,2.09-2.23s2-4.67,3.35-7.91a54,54,0,0,0,3.34-9.34A68.5,68.5,0,0,0,1482.14,217.17Zm4.6,10.56c-.56-2.17-.7-3.25-.42-3.25a3.15,3.15,0,0,1-.41,1.22,5.9,5.9,0,0,0-.84,2.43q-2.1,6.5-4.18,11.57l-3.76,9.13c-1.4,3.8-1.89,5.42-1.47,4.88s1.6-2.71,3.56-6.5c1.94-4.06,3.62-7.92,5-11.57A48.57,48.57,0,0,0,1486.74,227.73Zm8.78,8.11c0-2.16-.28-2.84-.83-2a7.37,7.37,0,0,0-1,2.44c-.42,1.36-.84,2.78-1.25,4.26s-.91,3.45-1.47,5.89c.84-1.63,1.53-3.05,2.09-4.26s1-2.44,1.47-3.66A20.88,20.88,0,0,1,1495.52,235.84Zm18.4,83.22a58,58,0,0,0,1.25-7.31c-.28,0-.56.48-.83,1.42s-.56,2.17-.84,3.66-.56,2.91-.84,4.26a16.34,16.34,0,0,0-.41,2.84C1512.52,325.29,1513.08,323.66,1513.92,319.06Zm9.2-13.4c-.28,0-.7.75-1.26,2.24s-1.19,3.24-1.88,5.27a54,54,0,0,0-1.67,5.89,21.76,21.76,0,0,0-.63,4.06c.28.81.56.61.84-.61s.84-3.31,1.67-6.29c.56-2.44,1.11-4.6,1.67-6.5a10.93,10.93,0,0,1,1.26-3.24Z"/><path class="cls-1" d="M1560.74,328.4q-.4-4.87,5.44-19.08t15.26-32.88q9.4-18.68,20.9-40t22.37-40.39Q1635.59,177,1644.57,162t13.17-21.52a158.09,158.09,0,0,1,13-16.64,126.64,126.64,0,0,1,16.51-15.63,93.43,93.43,0,0,1,19.23-11.77,50.42,50.42,0,0,1,21.12-4.67,33.74,33.74,0,0,1,17.56,4.47q7.51,4.47,8.36,15a53.71,53.71,0,0,1-7.11,29.84,98.73,98.73,0,0,1-20.49,25.17,160.37,160.37,0,0,1-27.59,19.69,228,228,0,0,1-28.43,13.8,57.25,57.25,0,0,1-9.62,3.24q-5,1.23-10,2.85-2.94.81-9.62,11.77t-14,24.35q-7.32,13.4-13.58,25.78t-8.37,16.44a218.78,218.78,0,0,0,17.15-16.85,218.58,218.58,0,0,1,17.14-16.84q5-4.05,15.26-12.18T1675.93,222a254.5,254.5,0,0,1,22.37-14.21q10.86-6.08,16.72-6.08a13.23,13.23,0,0,1,7.11,1.82q2.92,1.83,3.35,6.3a21.89,21.89,0,0,1-2.3,8.72,84.59,84.59,0,0,1-5.65,10.35q-3.35,5.28-6.9,9.95T1705,246.4a156.84,156.84,0,0,0-16.52,28A231.4,231.4,0,0,0,1677,304.85c-.84,2.71-1.75,5.68-2.72,8.93a24.3,24.3,0,0,0-1,9.34c0,2.17.49,3.72,1.47,4.67a8.5,8.5,0,0,0,3.34,2c1.26.4,2.51.74,3.77,1a6.25,6.25,0,0,1,3.13,1.63c0,2.43-1.54,4.26-4.6,5.47a22.09,22.09,0,0,1-7.94,1.83,19.76,19.76,0,0,1-14.84-6.29,23.82,23.82,0,0,1-6.91-14.41,61.71,61.71,0,0,1,2.31-21.92,146.62,146.62,0,0,1,8.15-21.72,172.59,172.59,0,0,1,11.29-20.5q6.27-9.73,12.12-17.86c1.39-1.89,2.79-3.78,4.18-5.68a26.22,26.22,0,0,0,3.35-6.09,20.18,20.18,0,0,0-4.6,3q-3.35,2.65-4.6,3.46-13.38,10.14-24.67,19.68t-22,19.28q-10.67,9.75-20.9,20.71T1594.19,315q-4.18,4.88-9.41,12a56.7,56.7,0,0,1-9.82,10.76h-1.25a8.19,8.19,0,0,1-3.35-1,33.52,33.52,0,0,1-4.18-2.44,27.4,27.4,0,0,1-3.76-3A4.41,4.41,0,0,1,1560.74,328.4Zm5-4.06a9.83,9.83,0,0,0,1.25-4.47v-.41c-.55,0-.9.68-1,2S1565.76,323.8,1565.76,324.34Zm2.93-7.31a21,21,0,0,0,1.88-3.86,12.34,12.34,0,0,0,1-4.26c-.56.27-1.11,1.56-1.67,3.86A27.58,27.58,0,0,1,1568.69,317Zm4.18-11q4.17-8.11,7.73-15.83t7.32-15.83Zm42.23-71q-11.3,19.89-21.33,40.19t-19.65,41.4l.42.41c.56,0,1.39-1.28,2.51-3.86a29.76,29.76,0,0,0,1.67-4.26q8.35-19.08,18.19-36.94t18.61-36.53Zm-24.25,33.69a1.24,1.24,0,0,0-.84.41v.81l.84-.4Zm5-8.52a1.17,1.17,0,0,0-.41-.81c-.29,0-.42.4-.42,1.22v.4l.83-.4Zm7.53-14.61a22.87,22.87,0,0,1,1.88-3.05,16.33,16.33,0,0,0,1.88-3.45,26.89,26.89,0,0,0,2.09-4.87,51.6,51.6,0,0,1-3.34,5.48,21,21,0,0,0-2.93,5.89q0,.81-.42.81Zm10-19.08c1.4-2.44,2.86-4.8,4.39-7.11a43.18,43.18,0,0,0,4-7.51Zm6.69,20.29a2.69,2.69,0,0,0,.84-2,2.65,2.65,0,0,1,.84-2,3.31,3.31,0,0,0-1.26,2Zm1.68-24.35c.27-.27,1.46-2,3.55-5.28s4.6-7.3,7.53-12.18,6.06-10.28,9.4-16.23,6.62-11.64,9.83-17,6.06-10.28,8.57-14.62,4.32-7.3,5.44-8.93a335.3,335.3,0,0,0-23.42,36.13Q1632.24,203,1621.79,222.45Zm.83,19.08c.56-.54.84-.95.84-1.22-.28,0-.7.27-1.25.81v.81Zm.42-32.48c.27,0,.84-.61,1.67-1.82s1.74-2.64,2.72-4.27,1.81-3.17,2.51-4.66a11.85,11.85,0,0,1,1.46-2.64,36.72,36.72,0,0,1,2.51-4.87q2.08-3.66,4.6-7.92t4.39-7.71q1.88-3.45,1.88-4.26-1.68,2.43-5,8.11t-6.9,11.57q-3.57,5.89-6.49,11.17C1624.43,205.27,1623.31,207.7,1623,209.05Zm5.85,21.92-.41-.4c-.28,0-.7.61-1.26,1.82a8.89,8.89,0,0,0-.84,2.24Zm14.22-26.79a20.4,20.4,0,0,0,4-6.09,50.78,50.78,0,0,0,2.72-6.9c-1.12,2.17-2.16,4.33-3.14,6.5A50.09,50.09,0,0,1,1643.11,204.18Zm2.51-34.1c.55-.54,1.18-1.21,1.88-2a2.42,2.42,0,0,0,.63-2.43c-.84,0-1.4.54-1.67,1.62a5.15,5.15,0,0,1-1.26,2.44Zm3.34-5.27a4.75,4.75,0,0,1,.84-1.22,1.65,1.65,0,0,0,.42-1.22,4.57,4.57,0,0,1-.84,1.22A1.63,1.63,0,0,0,1649,164.81Zm94.91-49.53a24.84,24.84,0,0,0-1-5.88c-.7-2.57-2-3.86-4-3.86q-6.28,0-14.85,4.67a106.5,106.5,0,0,0-16.72,11.37q-8.16,6.69-15.26,13.59A82.93,82.93,0,0,0,1681.58,147q-1.26,2-6.28,9.54t-10.45,16q-5.44,8.52-9.62,15.63t-4.18,8.32h.42a13.58,13.58,0,0,0,3.76-.81q2.52-.81,5.65-2c2.09-.81,4-1.63,5.64-2.44a33,33,0,0,1,3.77-1.62,247.84,247.84,0,0,0,23-12,167.64,167.64,0,0,0,24.46-17.25A105.69,105.69,0,0,0,1737,139.23Q1744.71,127.88,1743.87,115.28Zm-92.4,45.47a1.92,1.92,0,0,0,1-1.42,6.8,6.8,0,0,1,.62-1.83c-.56,0-.9.41-1,1.22A7,7,0,0,1,1651.47,160.75Zm4.18,151.41a15,15,0,0,0,1-3.66,14.77,14.77,0,0,1,1-3.65q2.09-8.12,4.6-15.42t5-15.43q-1.68,3.25-3.76,8.32c-1.4,3.39-2.72,6.9-4,10.56s-2.3,7.24-3.14,10.75a39.63,39.63,0,0,0-1.26,8.93V313Zm6.27-2.84c.56,0,1.19-1.28,1.89-3.86a29,29,0,0,0,1-4.67,66.59,66.59,0,0,1,2.3-6.29q1.88-4.67,3.76-9.74t3.35-9.13a37,37,0,0,0,1.46-4.47c-1.11.55-2.44,2.57-4,6.09a125.07,125.07,0,0,0-4.39,11.77q-2.1,6.5-3.76,12.38A36.58,36.58,0,0,0,1661.92,309.32Zm10-.41a26.5,26.5,0,0,1,1-3.65c.7-2.17,1.53-4.6,2.51-7.31s1.81-5.21,2.51-7.51a32.53,32.53,0,0,0,1-3.86q-.42,1.23-1.68,4.47t-2.51,6.9q-1.25,3.66-2.09,6.9A23.35,23.35,0,0,0,1672,308.91Zm38.88-92.14-.42-.41a1.36,1.36,0,0,0-1.25,1q-.42,1-.84,1.83V220c.28,0,.77-.47,1.47-1.42A5,5,0,0,0,1710.84,216.77Z"/><path class="cls-1" d="M1726.31,257.12a111.56,111.56,0,0,1,11.08-17.5,139.15,139.15,0,0,1,16.72-18.53,102.21,102.21,0,0,1,20.07-14.66q10.66-5.9,20.7-5.9a24.75,24.75,0,0,1,14.84,4.26q7.3,4.68,13.17,15.22l.84-.4a3.13,3.13,0,0,1,.42-2l1.67-6.09a3.92,3.92,0,0,0,.83-2.84,33.36,33.36,0,0,0,1.26-4.67,2.37,2.37,0,0,1,2.51-2.23A17.75,17.75,0,0,1,1840,205q5,3.26,5.86,7.73a31.49,31.49,0,0,1-1.05,10,88.47,88.47,0,0,1-4.6,13.85q-3.13,7.53-7.11,16.08T1825,269.33q-4.18,8.57-8.36,17.51t-7.32,17.1a154.84,154.84,0,0,0-5,15.06,27.76,27.76,0,0,0-1,11.81c-.56,2.17.55,3.26,3.35,3.26a9.1,9.1,0,0,0,5-1.63,14.8,14.8,0,0,1,2.93-1.43,8.36,8.36,0,0,1,2.51-.61.37.37,0,0,0,.42.41c.27,0,.42.07.42.2s.13.2.41.2q-.84,3.27-5.64,5.5a20.6,20.6,0,0,1-8.57,2.24,41.39,41.39,0,0,1-14.64-2.84,13.84,13.84,0,0,1-9.2-10.56,42.48,42.48,0,0,1,.84-11.77q1.26-6.09,2.93-18.26-2.94,3.24-9.83,10.35t-14.84,14.41q-8,7.31-15,13T1733.84,339q-10.46,0-16.73-6.72a31,31,0,0,1-7.94-16.08,50.15,50.15,0,0,1,.41-14.25,99.53,99.53,0,0,1,4-16.28q2.71-8.14,6.06-15.67A99,99,0,0,1,1726.31,257.12Zm-12.13,64.78c.28-.27.35-1.22.21-2.84s-.21-2.57-.21-2.84a29.68,29.68,0,0,1,.63-9.14A22.53,22.53,0,0,0,1715,298l-.42-.41c-.28,0-.42.35-.42,1V300q-.83,3.66-1.46,7.71a25.36,25.36,0,0,0,.21,8.53A14.05,14.05,0,0,0,1714.18,321.9Zm5-1.22c.28-.26.56-1.48.84-3.65s.55-4.6.83-7.31.49-5.2.63-7.51.21-3.71.21-4.26q-1.26,4.88-2.51,9.95a25.91,25.91,0,0,0-.42,10.35Zm9.62,1.63-.42-3.66v4.47l-.42.4Zm82.78-97.43q0-2.83-2.3-7.3t-6.9-4.47q-5.85,0-13.17,6.5a112.8,112.8,0,0,0-15,16.84,193.89,193.89,0,0,0-14.63,22.94,274,274,0,0,0-12.13,25,162.6,162.6,0,0,0-7.94,23.14q-2.73,10.75-1.46,17.25.4,2,6.27-2.84a170.89,170.89,0,0,0,14.42-14q8.57-9.13,18-21.11T1794.25,263a174.16,174.16,0,0,0,13.17-21.92Q1812.45,231,1811.6,224.88Zm-69.4,19.89c.55,0,1.39-.6,2.51-1.82s1.52-2,1.25-2.24a52.9,52.9,0,0,1,6.69-6.9,30.38,30.38,0,0,0,5.85-6.49v-.81a2.5,2.5,0,0,0-1.25.61c-.56.4-.84.75-.84,1-2.23,1.62-4.39,3.32-6.48,5.08a21.43,21.43,0,0,0-5.22,6.69l-1,2Zm6.69,2c.27,0,1.18-.74,2.71-2.23s3.28-3.11,5.23-4.87,3.69-3.45,5.23-5.07a15.43,15.43,0,0,1,3.13-2.84q-4.18,2.84-8.57,5.88a30.19,30.19,0,0,0-7.32,7.1Zm6.69,7.31,1.67-2.84-2.51,3.25v.4Zm28.85,73.07a30.65,30.65,0,0,0,.41-6.7V313l-1.67,11.77Zm5.43-.41c.56,0,.9-.47,1.05-1.42s.06-1.55-.21-1.83v-4.46c-.57,0-.84,1.22-.84,3.65Zm10,.81v.82l.83.81Zm23.83-101.07c.55,0,1.18-.81,1.88-2.44a43.66,43.66,0,0,0,1.88-5.48,48.76,48.76,0,0,0,1.25-6.09,36.64,36.64,0,0,0,.42-4.26c-.56,0-.91.48-1,1.42a14.58,14.58,0,0,0-.21,1.83,63.75,63.75,0,0,1-2.09,7.71A69.15,69.15,0,0,0,1823.73,226.51Zm2.51,7.3a82.59,82.59,0,0,1,4.6-8.52,20.59,20.59,0,0,0,2.92-9.34h-.83a58.57,58.57,0,0,1-3.35,8.93A57.59,57.59,0,0,0,1826.24,233.81Zm7.94,5.69c.56-1.08,1.32-2.5,2.3-4.26a56.74,56.74,0,0,0,2.72-5.69q1.24-3,2.09-5.88a17.26,17.26,0,0,0,.84-4.47h-.42l-1.26,2.84q-1.68,4.47-3.13,8.73T1834.18,239.5Z"/><path class="cls-1" d="M1999.35,202.56a25.37,25.37,0,0,1,8.09-1.63,9.11,9.11,0,0,1,5.31,2,24,24,0,0,1,4.89,4.87,26.09,26.09,0,0,1,3.4,6.09,16,16,0,0,1,1.28,5.69q0,6.49-4.82,17.86a207.08,207.08,0,0,1-12.78,24.76q-8,13.39-18,27.2a283.11,283.11,0,0,1-20.33,25,141.29,141.29,0,0,1-19.9,18.27q-9.64,7.11-16.76,7.1c-5.59,0-10.06-.87-13.41-2.64a19.33,19.33,0,0,1-7.75-7.1,26.74,26.74,0,0,1-3.57-10.15,83.37,83.37,0,0,1-.83-12.18,48.29,48.29,0,0,1,1.68-12.17l-.42.4a5.32,5.32,0,0,1,.42-2.43c-1.13.54-2.8,2.09-5,4.66s-4.88,5.35-8,8.33q-5,4.86-10.9,10.55t-11.52,10.55a64.11,64.11,0,0,1-11.32,7.92q-5.65,3-9.84,3-10.07,0-13.83-4.87t-3.77-14.21q0-13.79,6.48-28.82t13.59-29.22q5.85-11.78,10.45-22.53a52.28,52.28,0,0,0,4.6-20.5,23,23,0,0,0-.21-3.86,7.1,7.1,0,0,0-.63-1.82c-.83-2.44-1-4.4-.41-5.89s3.2-2.23,7.94-2.23a14.46,14.46,0,0,1,12.12,6.09,21.15,21.15,0,0,1,4.6,13,54.68,54.68,0,0,1-5.37,22.73q-5.38,11.78-12.41,24.35-7.44,13.81-13.86,28a68.7,68.7,0,0,0-6.41,28.42A107.2,107.2,0,0,0,1866.52,316q9-7.9,18.33-17.25t17.69-18.26q8.34-8.92,12.49-13.81l8.75-20.7c.55-1.35,1.18-3.18,1.87-5.48s1.46-4.93,2.29-7.91q1.24-4.87,2.71-9.75t2.91-9.13a33.72,33.72,0,0,1,3.13-6.9q1.66-2.64,3.33-2.64,6.24,0,10.83,5.89t4.58,12a64.89,64.89,0,0,1-4.81,24.76q-4.81,11.79-10.66,23.55t-10.67,23.34a61.42,61.42,0,0,0-4.8,23.75v6.08c0,3,.69,4.74,2.09,5.28q4.59-2.83,11.71-10.76a234.29,234.29,0,0,0,15-18.87q7.94-11,15.88-23.54t14.43-24.56a191.78,191.78,0,0,0,10.45-22.33q4-10.35,4-16.44V207a16.92,16.92,0,0,1,.85-4.06ZM1836.27,322.71c0-3.25-.14-4.87-.42-4.87s-.42,1-.42,2.84a24.32,24.32,0,0,0,.42,4.87Q1836.68,327.59,1836.27,322.71Zm.42-7.3c-.29,0-.42.27-.42.81s.06.88.21,1,.21-.06.21-.61Zm4.6,2.43c.27-4.06.2-5.61-.21-4.67s-.91,3.73-1.47,8.33v1.62a1.15,1.15,0,0,0,.42.81c.56.55.84.27.84-.81v-1.83A16.86,16.86,0,0,1,1841.29,317.84Zm30.52-89.3a21.93,21.93,0,0,0,.83-4.87c-.28-1.08-.83-.27-1.67,2.43q-.42,1.64-1,4.47a46,46,0,0,1-1.46,5.27l-1.67,5.69a41.06,41.06,0,0,0,2.51-4.87,36.08,36.08,0,0,0,1.46-4.47C1871.18,230.57,1871.53,229.35,1871.81,228.54Zm4.59,4.06q.84-3.25.42-4.47c-.28-.81-.69-.13-1.25,2-.28.81-.77,2.17-1.46,4.06s-1.33,3.79-1.89,5.68a10.12,10.12,0,0,0-1,2.85,6.87,6.87,0,0,1-.63,2,6.53,6.53,0,0,0-.42,2,39.15,39.15,0,0,0,3.14-5.68c.69-1.62,1.32-3.25,1.88-4.87S1876.13,233.41,1876.4,232.6Zm6.7,5.68a2.78,2.78,0,0,1,.2-1.22,2.7,2.7,0,0,0,.21-1.22,1.6,1.6,0,0,1,.42-1.21c-.28-.27-.56.14-.83,1.21s-1,3.39-2.1,6.91q0,.81.42,0C1882,241.39,1882.53,239.9,1883.1,238.28Zm26.34,67.38v-.4c0-.27-.08-.34-.21-.21s-.21.48-.21,1c.27.55.42.68.42.41Zm3.34-12.17c.27-1.36.56-2.57.84-3.66s.55-2,.83-2.84c.28-1.08.56-2,.84-2.84-.28-.27-.77.48-1.46,2.23a50.49,50.49,0,0,0-1.89,5.89c-.56,2.17-1.11,4.33-1.67,6.49a21.57,21.57,0,0,0-.83,4.47c.27.54.41.68.41.4a11.46,11.46,0,0,0,1.26-3.45Q1911.94,297.14,1912.78,293.49Zm10.45-13.81a84,84,0,0,0,2.93-8.93c.27-1.35-.14-.94-1.25,1.22a23.4,23.4,0,0,0-2.1,4.47c-.83,2.17-1.67,4.46-2.5,6.9s-1.68,4.81-2.51,7.1-1.4,4-1.67,5.08c-1.12,3.79-1.47,5.61-1.05,5.48s1.18-2,2.3-5.48c.56-1.89,1.39-4.4,2.51-7.51S1922.12,282.12,1923.23,279.68Zm2.51,14.21c0-.26.07-.4.21-.4s.21-.14.21-.41v-.41a1.24,1.24,0,0,0-.84.41c-.28.81-.35,1.29-.2,1.42S1925.46,294.44,1925.74,293.89Zm13-74.69c0-1.62-.14-2.43-.41-2.43-.57,0-.84.81-.84,2.43-.28,1.9-1.19,5.68-2.72,11.37a132.59,132.59,0,0,1-4.39,13.8q-5,12.18-.84,4.06a90,90,0,0,0,5.65-14.62A105.21,105.21,0,0,0,1938.7,219.2Zm3.76,9.34c.56-3,.63-4.26.21-3.86s-1,2.1-1.88,5.07q-.84,2.44-1.88,5.89c-.7,2.3-1.46,4.61-2.3,6.9s-1.6,4.33-2.3,6.09-1.19,3-1.46,3.86a16.44,16.44,0,0,0-.84,2.84c.28.54.9-.13,1.88-2A69.33,69.33,0,0,0,1937,246c1.11-3,2.16-6.09,3.14-9.33S1941.9,230.71,1942.46,228.54Zm.84,25.17v-1.63l-.84.81C1941.9,255.06,1942.19,255.33,1943.3,253.71Zm5.44-15.43c.55-2.44.69-3.65.42-3.65s-.84,1.35-1.68,4.06c-.28,1.35-.62,2.84-1,4.46a34.46,34.46,0,0,1-1.47,4.47c-.83,2.43-1.11,3.65-.83,3.65q.83-.81,2.3-5.28T1948.74,238.28Zm55.19-15.43a9.82,9.82,0,0,0,.62-3.85c-.14-.67-.49-.21-1,1.42a195.9,195.9,0,0,1-9.62,24.76c-.83,1.9-1,2.64-.62,2.23a36.45,36.45,0,0,0,3.13-5.07,106.37,106.37,0,0,0,4.39-10A72.2,72.2,0,0,0,2003.93,222.85Zm2.92,8.94c1.11-3,1.53-4.6,1.26-4.88q0-.39-2.09,4.06t-5,10.56q-2.93,6.09-4.81,10.55t-1.46,4.47c.27,0,1-1,2.09-3.05s2.36-4.39,3.76-7.1,2.65-5.48,3.77-8.32S2006.29,233.14,2006.85,231.79Zm5,10.55c2-4.33,2.93-6.76,2.93-7.31a5.14,5.14,0,0,0-1.26,2,3.55,3.55,0,0,0-1,2,6.22,6.22,0,0,1-1,2.44c-2.5,4.6-3.49,6.9-2.92,6.9a4.11,4.11,0,0,1,.83-1.63l1.05-2A22.34,22.34,0,0,1,2011.87,242.34Z"/></g></svg>